<?xml version="1.0" standalone="no"?><!DOCTYPE svg PUBLIC "-//W3C//DTD SVG 1.1//EN" "http://www.w3.org/Graphics/SVG/1.1/DTD/svg11.dtd"><svg class="icon" width="200px" height="200.00px" viewBox="0 0 1024 1024" version="1.1" xmlns="http://www.w3.org/2000/svg"><path fill="#1296db" d="M711.652513 498.556564l-291.357735-247.878965c-4.19795-3.698194-9.295461-5.397365-14.293021-5.397365-10.794729 0-20.989751 7.49634-20.989751 18.990727v495.857882c0 11.394436 10.195022 18.990727 20.989751 18.990728 4.99756 0 10.095071-1.599219 14.293021-5.397365l291.357735-247.878965c8.495852-7.49634 8.495852-19.790337 0-27.286677z m110.945828 324.541533c-40.380283 40.380283-87.457296 72.064812-139.831723 94.253977-54.073597 22.988775-111.645486 34.583114-171.016496 34.583114s-116.942899-11.594339-171.116447-34.583114c-52.374427-22.089214-99.351489-53.873694-139.831723-94.253977-40.380283-40.380283-72.064812-87.457296-94.253977-139.831723-22.788873-54.073597-34.483163-111.645486-34.483163-171.016496 0-59.37101 11.594339-116.942899 34.583114-171.116447 22.089214-52.374427 53.873694-99.351489 94.253977-139.831723 40.380283-40.380283 87.457296-72.064812 139.831723-94.253977C394.807223 84.258858 452.379112 72.664519 511.750122 72.664519s116.942899 11.594339 171.116447 34.583114c52.374427 22.089214 99.351489 53.873694 139.831723 94.253978 40.380283 40.380283 72.064812 87.457296 94.253977 139.831722 22.788873 54.073597 34.483163 111.645486 34.483163 171.016496 0 59.37101-11.594339 116.942899-34.583114 171.116447-22.189165 52.274475-53.773743 99.251537-94.253977 139.631821zM511.750122 0.499756C229.088141 0.499756 0 229.687848 0 512.249878s229.088141 511.750122 511.750122 511.750122 511.750122-229.088141 511.750122-511.750122S794.412103 0.499756 511.750122 0.499756z" /></svg>