<?xml version="1.0" standalone="no"?><!DOCTYPE svg PUBLIC "-//W3C//DTD SVG 1.1//EN" "http://www.w3.org/Graphics/SVG/1.1/DTD/svg11.dtd"><svg class="icon" width="200px" height="200.00px" viewBox="0 0 1024 1024" version="1.1" xmlns="http://www.w3.org/2000/svg"><path fill="#1296db" d="M512 0c282.763636 0 512 229.236364 512 512s-229.236364 512-512 512S0 794.763636 0 512 229.236364 0 512 0z m0 64.465455C265.262545 64.465455 64.465455 265.309091 64.465455 512c0 246.760727 200.773818 447.534545 447.534545 447.534545S959.534545 758.784 959.534545 512c0-246.737455-200.773818-447.534545-447.534545-447.534545zM399.36 307.2c16.965818 0 30.72 13.637818 30.72 30.789818v348.020364c0 15.941818-11.985455 29.044364-27.554909 30.626909l-3.165091 0.162909c-16.965818 0-30.72-13.637818-30.72-30.789818V337.989818c0-15.941818 11.985455-29.044364 27.554909-30.626909l3.165091-0.162909z m225.28 0c16.965818 0 30.72 13.637818 30.72 30.789818v348.020364c0 15.941818-11.985455 29.044364-27.554909 30.626909l-3.165091 0.162909c-16.965818 0-30.72-13.637818-30.72-30.789818V337.989818c0-15.941818 11.985455-29.044364 27.554909-30.626909l3.165091-0.162909z" /></svg>