<?xml version="1.0" standalone="no"?><!DOCTYPE svg PUBLIC "-//W3C//DTD SVG 1.1//EN" "http://www.w3.org/Graphics/SVG/1.1/DTD/svg11.dtd"><svg class="icon" width="200px" height="197.11px" viewBox="0 0 1039 1024" version="1.1" xmlns="http://www.w3.org/2000/svg"><path fill="#1296db" d="M564.194304 438.8352v445.184l102.144-102.144 51.712 51.712L527.637504 1024l-190.464-190.464 51.712-51.712 102.1952 102.1952V438.784h73.1136zM527.637504 0a292.5056 292.5056 0 0 1 290.2016 256.768 237.568 237.568 0 0 1-15.872 474.624h-128v-73.1136h128a164.7616 164.7616 0 0 0 164.5056-164.5568 164.7104 164.7104 0 0 0-153.4976-163.9424l-60.416-4.0448-7.3728-60.1088A219.3408 219.3408 0 0 0 527.637504 73.1136a219.3408 219.3408 0 0 0-217.6 192.512l-7.3216 60.1088-60.416 4.096a164.7104 164.7104 0 0 0-153.4976 163.84 164.7616 164.7616 0 0 0 164.5568 164.608h128v73.1648h-128a237.568 237.568 0 1 1-15.872-474.624A292.5056 292.5056 0 0 1 527.637504 0z"  /></svg>