<?xml version="1.0" standalone="no"?><!DOCTYPE svg PUBLIC "-//W3C//DTD SVG 1.1//EN" "http://www.w3.org/Graphics/SVG/1.1/DTD/svg11.dtd"><svg class="icon" width="200px" height="200.00px" viewBox="0 0 1024 1024" version="1.1" xmlns="http://www.w3.org/2000/svg"><path fill="#2c2c2c" d="M512 128C170.667 128 42.667 512 42.667 512s128 383.979 469.333 384c341.333 0.021 469.333-384 469.333-384S853.333 128 512 128z m0.043 725.333H512c-126.976 0-237.141-58.432-327.488-173.61C130.475 610.795 99.584 540.693 88.213 512 113.941 447.104 239.637 170.667 512 170.667c126.976 0 237.141 58.41 327.488 173.61 54.037 68.907 84.928 139.03 96.299 167.723-11.392 28.736-42.283 98.837-96.299 167.744-90.325 115.2-200.49 173.59-327.445 173.59zM512 256c-141.376 0-256 114.624-256 256s114.624 256 256 256 256-114.624 256-256-114.624-256-256-256z m0 469.333c-117.632 0-213.333-95.701-213.333-213.333S394.368 298.667 512 298.667 725.333 394.368 725.333 512 629.632 725.333 512 725.333z m0-362.666a21.333 21.333 0 0 0 0 42.666c58.816 0 106.667 47.851 106.667 106.667a21.333 21.333 0 0 0 42.666 0c0-82.347-66.986-149.333-149.333-149.333z" /></svg>