<?xml version="1.0" standalone="no"?><!DOCTYPE svg PUBLIC "-//W3C//DTD SVG 1.1//EN" "http://www.w3.org/Graphics/SVG/1.1/DTD/svg11.dtd"><svg class="icon" width="200px" height="200.00px" viewBox="0 0 1024 1024" version="1.1" xmlns="http://www.w3.org/2000/svg"><path fill="#2c2c2c" d="M598.646 512c63.016-31.508 106.339-98.462 106.339-173.292 0-106.339-86.647-192.985-192.985-192.985s-196.923 90.585-196.923 196.923c0 74.83 43.323 141.785 106.338 173.292-106.338 35.447-185.107 137.847-185.107 259.939 0 11.815 11.815 23.63 23.63 23.63s23.631-11.815 23.631-23.63c0-126.03 102.4-228.43 228.431-228.43s228.43 102.4 228.43 228.43c0 11.815 11.816 23.63 23.632 23.63s23.63-11.815 23.63-23.63c0-122.092-78.769-224.492-189.046-263.877zM362.338 342.646c0-82.708 66.954-145.723 145.724-145.723 82.707 0 145.723 66.954 145.723 145.723S590.769 488.37 512 488.37c-82.708 0-149.662-66.954-149.662-145.723z m512-192.984C775.877 55.138 649.846 0 512 0S248.123 55.138 149.662 149.662C55.138 248.123 0 374.154 0 512s51.2 263.877 149.662 362.338S374.154 1024 512 1024s263.877-51.2 362.338-149.662S1024 649.846 1024 512s-55.138-263.877-149.662-362.338zM512 976.738C256 976.738 47.262 768 47.262 512S256 47.262 512 47.262 976.738 256 976.738 512 768 976.738 512 976.738z" /></svg>