<?xml version="1.0" standalone="no"?><!DOCTYPE svg PUBLIC "-//W3C//DTD SVG 1.1//EN" "http://www.w3.org/Graphics/SVG/1.1/DTD/svg11.dtd"><svg class="icon" width="200px" height="200.00px" viewBox="0 0 1024 1024" version="1.1" xmlns="http://www.w3.org/2000/svg"><path fill="#2c2c2c" d="M847.575872 123.469056H770.164804v62.058404c0 23.598464-21.85782 42.793642-48.7544 42.793642-26.874067 0-48.749284-19.194154-48.749284-42.793642v-62.058404H371.897102v62.058404c0 23.598464-21.878287 42.793642-48.752354 42.793642-26.895557 0-48.752354-19.194154-48.752354-42.793642v-62.058404h-77.413114c-52.223409 0-94.708012 37.275975-94.708012 83.080184v670.35868c0 45.803185 42.484603 83.098603 94.709035 83.098604h650.596592c52.222385 0 94.708012-37.294394 94.708012-83.098604v-670.357657c-0.002047-45.803185-42.485627-83.081207-94.709035-83.081207z m33.063023 740.78159c0 14.791891-14.81645 26.831089-33.062 26.831089h-650.597615c-18.248619 0-33.063023-12.039197-33.063023-26.831089v-505.60536h716.722638v505.60536zM323.955206 211.962529c12.900821 0 23.320125-8.017604 23.320125-17.913998V81.905428c0-9.896394-10.422374-17.911952-23.320125-17.911952-12.901845 0-23.348778 8.016581-23.348777 17.911952v112.14515c0 9.895371 10.446933 17.912975 23.348777 17.912975v-0.001024z m396.643716 0c12.900821 0 23.349801-8.017604 23.349801-17.913998V81.905428c0-9.896394-10.44898-17.911952-23.349801-17.911952-12.898775 0-23.319102 8.016581-23.319102 17.911952v112.14515c0.002047 9.895371 10.42135 17.912975 23.319102 17.912975v-0.001024z m16.531512 298.503535L508.158509 774.430968c-12.20088 14.066367-31.984459 14.066367-44.186362 0L335.425446 626.241904c-12.20088-14.06739-12.20088-36.874839 0-50.941206 12.202926-14.066367 31.986505-14.066367 44.188408 0L486.065328 698.020694l206.877721-238.496859c12.20088-14.065344 31.984459-14.065344 44.186361 0 12.201903 14.06739 12.201903 36.874839 0 50.941206h0.001024v0.001023z" /></svg>