<?xml version="1.0" standalone="no"?><!DOCTYPE svg PUBLIC "-//W3C//DTD SVG 1.1//EN" "http://www.w3.org/Graphics/SVG/1.1/DTD/svg11.dtd"><svg class="icon" width="200px" height="200.00px" viewBox="0 0 1024 1024" version="1.1" xmlns="http://www.w3.org/2000/svg"><path fill="#2c2c2c" d="M524.42944719 960.10735292a461.81158219 461.81158219 0 1 1 0-923.62316437c5.27965687 0 10.55931375 0 16.78930875 0.31677937a23.0721 23.0721 0 0 1 11.61524531 42.50123719 330.61211063 330.61211063 0 1 0 371.79343312 546.44448094 23.0721 23.0721 0 0 1 35.32090407 26.39828437 462.60353062 462.60353062 0 0 1-435.51889125 308.01517875zM469.62660969 86.2713523a415.66738125 415.66738125 0 1 0 417.93763406 614.55205406 376.86190406 376.86190406 0 0 1-417.93763406-614.55205406z"  /><path fill="#2c2c2c" d="M524.42944719 970.66666667a472.37089594 472.37089594 0 1 1 0-944.74179187c5.27965687 0 10.55931375 0 17.21168156 0.31677937a33.63141375 33.63141375 0 0 1 17.00049469 61.98317156 320.05279688 320.05279688 0 1 0 359.91420562 528.96881625 33.63141375 33.63141375 0 0 1 51.47665406 38.38310531 473.16284438 473.16284438 0 0 1-445.60303593 315.08991938z m0-923.62316437a451.25226844 451.25226844 0 1 0 425.59313625 601.56409781 12.51278625 12.51278625 0 0 0-19.16515406-14.30787 341.17142344 341.17142344 0 1 1-383.72545782-563.86734844 12.51278625 12.51278625 0 0 0-6.28279125-23.0721c-6.229995-0.21118594-11.45685563-0.31677937-16.41973312-0.31677937z m0 877.47896343A426.226695 426.226695 0 0 1 468.25389875 75.76483573l32.04751687-4.22372625-23.38887937 22.33294875a362.29005094 362.29005094 0 0 0-112.61508 264.3524175 366.61936969 366.61936969 0 0 0 366.19699688 366.19699688 362.55403406 362.55403406 0 0 0 152.63487843-33.20904188l29.40768844-13.51592156-15.83897062 28.29896063a426.86025375 426.86025375 0 0 1-372.26860219 218.52499593zM439.690955 102.11032292a405.10806844 405.10806844 0 1 0 422.05576688 620.67645563 387.6852 387.6852 0 0 1-518.56789313-364.29632063 383.09189906 383.09189906 0 0 1 96.51212625-256.380135z"  /><path fill="#2c2c2c" d="M787.77872938 548.98047636h-173.06715001a23.0721 23.0721 0 0 1-12.72397312-42.237255l108.81372656-71.75053594h-96.08975344a23.0721 23.0721 0 0 1 0-46.14420094h173.06715a23.0721 23.0721 0 0 1 12.72397313 42.237255l-108.8137275 71.75053594h96.08975437a23.0721 23.0721 0 0 1 0 46.14420094z m97.99043062-237.5845575h-106.22669531a16.47252938 16.47252938 0 0 1-9.08100938-30.25243313l60.29368125-39.75581625h-51.26546812a16.47252938 16.47252938 0 1 1 0-32.94505781h106.49067844a16.47252938 16.47252938 0 0 1 9.08100937 30.25243312l-60.29368125 39.75581625h51.21267188a16.47252938 16.47252938 0 1 1 0 32.94505782z m41.18132344-207.912885h-89.75416594a11.56244812 11.56244812 0 0 1-6.33558844-21.1186275l57.60105657-37.9607325h-51.26546813a11.56244812 11.56244812 0 1 1 0-23.0721h89.75416594a11.56244812 11.56244812 0 0 1 6.33558844 21.11862656L875.68501531 80.41093292h51.26546813a11.56244812 11.56244812 0 1 1 0 23.07210094z"  /><path fill="#2c2c2c" d="M787.77872938 559.53979011h-173.06715001a33.63141375 33.63141375 0 0 1-18.47879906-61.71918844l79.19485219-52.37419594h-60.71605313a33.63141375 33.63141375 0 1 1 0-67.2628275h173.06715001a33.63141375 33.63141375 0 0 1 18.53159531 61.71918844l-79.19485219 52.374195h60.66325688a33.63141375 33.63141375 0 0 1 0 67.26282844z m-173.06715001-160.39597407a12.51278625 12.51278625 0 1 0 1e-8 25.0255725h131.35786124l-138.22141593 91.12687688a12.51278625 12.51278625 0 0 0 6.86355468 22.9665075h173.06715001a12.51278625 12.51278625 0 0 0-1e-8-25.02557344h-131.305065l138.22141594-91.12687687a12.51278625 12.51278625 0 0 0-6.91635094-22.96650657h-173.06715zM885.98034688 322.16641948h-106.43788219a27.03184313 27.03184313 0 0 1-14.994225-49.7343675l30.93878906-20.37947531h-15.83897063a27.03184313 27.03184313 0 0 1 0-54.06368625h106.33228875a27.03184313 27.03184313 0 0 1 14.88863157 49.62877406l-30.93878907 20.37947532h15.83897063a27.08463937 27.08463937 0 0 1 0.21118687 54.16927968z m-106.43788219-91.12687687h86.48077875l-89.75416594 59.13215625a5.91321563 5.91321563 0 0 0 3.27338719 10.87609312h106.43788218a5.91321563 5.91321563 0 0 0 0-11.82643125h-86.69196562l89.75416594-59.13215625a5.91321563 5.91321563 0 0 0-3.27338719-10.87609312h-106.22669531a5.91321563 5.91321563 0 1 0 0 11.82643125z m147.460815-116.997195h-89.75416594a22.12176188 22.12176188 0 0 1-12.14321063-40.54776469l28.19336719-18.5843925h-15.83896968a22.12176188 22.12176188 0 0 1 0-44.1907275h89.75416593a22.12176188 22.12176188 0 0 1 12.14321063 40.54776469l-28.19336813 18.5843925h15.83897063a22.12176188 22.12176188 0 0 1 0 44.1907275z m-89.75416594-82.20425719a1.10872781 1.10872781 0 0 0-1.00313437 1.00313531 1.00313437 1.00313437 0 0 0 1.00313437 1.00313438h86.48077875l-87.00874406 57.23148a1.00313437 1.00313437 0 0 0 0.52796531 1.79508375h89.75416594a1.00313437 1.00313437 0 1 0 0-1.95347344h-86.48077875l87.008745-57.33707344a0.95033813 0.95033813 0 0 0 0.42237187-0.79194843 1.10872781 1.10872781 0 0 0-1.00313437-1.00313438h-89.75416594z"  /></svg>